# xmcd
#
# Track frame offsets: 
#        150
#        27792
#        51667
#        70625
#        112225
#        126537
#        145780
#        172775
#        198540
#        238460
#
# Disc length: 3561 seconds
#
# Revision: 1
# Processed by: cddbd v1.5.2PL0 Copyright (c) Steve Scherf et al.
# Submitted via: ExactAudioCopy v1.0b3
#
DISCID=9a0de70a
DTITLE=Al Jones - Watch This!
DYEAR=1995
DGENRE=Blues
TTITLE0=Three Times A Fool
TTITLE1=Don't Change Your Mind
TTITLE2=Ain't That Just Like A Woman
TTITLE3=Society Woman
TTITLE4=Come On Home
TTITLE5=Please Please Please
TTITLE6=All Your Love
TTITLE7=Feel So Bad
TTITLE8=Just The Blues
TTITLE9=Watch This
EXTD=
EXTT0=
EXTT1=
EXTT2=
EXTT3=
EXTT4=
EXTT5=
EXTT6=
EXTT7=
EXTT8=
EXTT9=
PLAYORDER=
